<svg xmlns="http://www.w3.org/2000/svg" viewBox="0 0 854.62994 1130.24023"><g id="Layer_2" data-name="Layer 2"><g id="Layer_1-2" data-name="Layer 1"><path d="M841.10992,122.09961q-13.53-14.81982-33.56994-35.31982-20.055-20.49024-40.97-40.5503Q745.61486,26.175,730.79,13.09961,715.97.00464,713.35992,0H0V882.55957H392.43V706.3999H713.35992q3.4801,0,18.75-13.08008,15.24006-13.08032,35.76-33.14013Q788.36,640.12451,808.42,619.61963q20.04-20.46021,33.15-35.31983c8.71-9.87011,13.05993-15.70019,13.05993-17.43017V139.53955Q854.62994,136.92993,841.10992,122.09961ZM458.71,453.48975c0,3.48974-.3,5.52978-.88012,6.10986-.57984.58008-2.59986.87988-6.08985.87988H395.93c-3.5,0-5.55-.2998-6.11-.87988-.6-.58008-.88-2.62012-.88-6.10986v-216.27c0-3.5.28-5.52.88-6.10987.55993-.57031,2.61-.85986,6.11-.85986h55.81006c3.49,0,5.51.28955,6.08985.85986.58007.58985.88012,2.60987.88012,6.10987Z"/><rect y="952.31934" width="854.62994" height="177.9209"/></g></g></svg>