<svg xmlns="http://www.w3.org/2000/svg" version="1.1" xmlns:xlink="http://www.w3.org/1999/xlink" xmlns:svgjs="http://svgjs.dev/svgjs" width="2000" height="611" viewBox="0 0 2000 611"><g transform="matrix(1,0,0,1,-1.2121212102667869,0.4226387803221314)"><svg viewBox="0 0 396 121" data-background-color="#ffffff" preserveAspectRatio="xMidYMid meet" height="611" width="2000" xmlns="http://www.w3.org/2000/svg" xmlns:xlink="http://www.w3.org/1999/xlink"><g id="tight-bounds" transform="matrix(1,0,0,1,0.23999999963282903,-0.08369769626673929)"><svg viewBox="0 0 395.5199999999999 121.16739539253345" height="121.16739539253345" width="395.5199999999999"><g><svg viewBox="0 0 715.9961764196736 219.3451451450868" height="121.16739539253345" width="395.5199999999999"><g><rect width="12.195264430023226" height="219.3451451450868" x="276.35613599482514" y="0" fill="#152232" opacity="1" stroke-width="0" stroke="transparent" fill-opacity="1" class="rect-qz-0" data-fill-palette-color="primary" rx="1%" id="qz-0" data-palette-color="#152232"></rect></g><g transform="matrix(1,0,0,1,320.47617641967355,0.5456346894156212)"><svg viewBox="0 0 395.52 218.25387576625556" height="218.25387576625556" width="395.52"><g id="textblocktransform"><svg viewBox="0 0 395.52 218.25387576625556" height="218.25387576625556" width="395.52" id="textblock"><g><svg viewBox="0 0 395.52 135.23092561219775" height="135.23092561219775" width="395.52"><g transform="matrix(1,0,0,1,0,0)"><svg width="395.52" viewBox="3.98 -41.19 158.51000000000002 54.2" height="135.23092561219775" data-palette-color="#152232"><path d="M13.67-13.13L13.67 0 3.98 0 3.98-35.16 22.97-35.16Q25.44-35.16 27.7-34.5 29.96-33.84 31.69-32.51 33.42-31.18 34.46-29.16 35.5-27.15 35.5-24.44L35.5-24.44Q35.5-22.73 35.01-21.23 34.52-19.73 33.65-18.48 32.79-17.24 31.62-16.24 30.44-15.23 29.05-14.55 27.66-13.87 26.11-13.5 24.56-13.13 22.97-13.13L22.97-13.13 13.67-13.13ZM25.68-24.44L25.68-24.44Q25.68-27.83 23.96-29.77 22.24-31.71 18.77-31.71L18.77-31.71 13.67-31.71 13.67-16.46 18.77-16.46Q20.63-16.46 21.94-17.05 23.24-17.65 24.07-18.73 24.9-19.8 25.29-21.25 25.68-22.71 25.68-24.44ZM48.41-35.01L48.41-35.01Q48.41-34.08 48.06-33.25 47.7-32.42 47.09-31.81 46.48-31.2 45.65-30.85 44.82-30.49 43.89-30.49L43.89-30.49Q42.97-30.49 42.15-30.85 41.33-31.2 40.72-31.81 40.11-32.42 39.76-33.25 39.4-34.08 39.4-35.01L39.4-35.01Q39.4-35.94 39.76-36.76 40.11-37.57 40.72-38.18 41.33-38.79 42.15-39.15 42.97-39.5 43.89-39.5L43.89-39.5Q44.82-39.5 45.65-39.15 46.48-38.79 47.09-38.18 47.7-37.57 48.06-36.76 48.41-35.94 48.41-35.01ZM48.04-28.17L48.04 0 39.77 0 39.77-28.17 48.04-28.17ZM69.04-15.55L79.88 0 71.63 0 64.72-9.89 57.66 0 51.95 0 62.57-12.99 51.95-28.2 60.2-28.2 66.89-18.63 74.16-28.2 79.88-28.2 69.04-15.55ZM113.66-14.16L113.66-14.16Q113.66-11.08 112.74-8.4 111.81-5.71 110.05-3.72 108.29-1.73 105.75-0.59 103.22 0.56 99.99 0.56L99.99 0.56Q97.53 0.56 95.46-0.4 93.4-1.37 91.94-3.37L91.94-3.37 91.94 13.01 83.68 13.01 83.68-28.2 86.86-28.2 90.52-22.07Q91.06-23.61 92-24.87 92.94-26.12 94.17-27.01 95.4-27.91 96.88-28.39 98.36-28.88 99.99-28.88L99.99-28.88Q103.22-28.88 105.75-27.73 108.29-26.59 110.05-24.6 111.81-22.61 112.74-19.92 113.66-17.24 113.66-14.16ZM105.29-14.16L105.29-14.16Q105.29-15.23 105.18-16.44 105.07-17.65 104.8-18.85 104.53-20.04 104.06-21.14 103.58-22.24 102.85-23.08 102.12-23.93 101.08-24.43 100.04-24.93 98.67-24.93L98.67-24.93Q97.26-24.93 96.22-24.44 95.18-23.95 94.44-23.11 93.69-22.27 93.22-21.18 92.74-20.09 92.47-18.9 92.2-17.7 92.09-16.48 91.98-15.26 91.98-14.16L91.98-14.16Q91.98-13.18 92.13-12 92.28-10.82 92.6-9.62 92.91-8.42 93.43-7.3 93.94-6.18 94.68-5.3 95.43-4.42 96.42-3.89 97.4-3.37 98.67-3.37L98.67-3.37Q100.07-3.37 101.09-3.87 102.12-4.37 102.85-5.21 103.58-6.05 104.06-7.15 104.53-8.25 104.8-9.45 105.07-10.64 105.18-11.87 105.29-13.09 105.29-14.16ZM147.35-28.2L147.35 0 139.1 0 139.1-3.37Q137.64-1.37 135.57-0.4 133.51 0.56 131.04 0.56L131.04 0.56Q127.82 0.56 125.28-0.59 122.74-1.73 120.99-3.72 119.23-5.71 118.3-8.4 117.37-11.08 117.37-14.16L117.37-14.16Q117.37-17.24 118.3-19.92 119.23-22.61 120.99-24.6 122.74-26.59 125.28-27.73 127.82-28.88 131.04-28.88L131.04-28.88Q132.68-28.88 134.16-28.39 135.63-27.91 136.87-27.01 138.1-26.12 139.04-24.87 139.98-23.61 140.52-22.07L140.52-22.07 144.18-28.2 147.35-28.2ZM139.05-14.16L139.05-14.16Q139.05-15.26 138.94-16.48 138.83-17.7 138.56-18.9 138.3-20.09 137.82-21.18 137.34-22.27 136.6-23.11 135.85-23.95 134.8-24.44 133.75-24.93 132.36-24.93L132.36-24.93Q130.97-24.93 129.95-24.43 128.92-23.93 128.19-23.08 127.46-22.24 126.98-21.14 126.5-20.04 126.24-18.85 125.97-17.65 125.86-16.44 125.75-15.23 125.75-14.16L125.75-14.16Q125.75-13.09 125.86-11.87 125.97-10.64 126.24-9.45 126.5-8.25 126.98-7.15 127.46-6.05 128.19-5.21 128.92-4.37 129.95-3.87 130.97-3.37 132.36-3.37L132.36-3.37Q133.63-3.37 134.62-3.89 135.61-4.42 136.35-5.3 137.1-6.18 137.61-7.3 138.12-8.42 138.44-9.62 138.76-10.82 138.91-12 139.05-13.18 139.05-14.16ZM162.49-32.62L162.49 0 154.24 0 154.24-41.19 157.41-41.19 162.49-32.62Z" opacity="1" transform="matrix(1,0,0,1,0,0)" fill="#152232" class="wordmark-text-0" data-fill-palette-color="primary" id="text-0"></path></svg></g></svg></g><g transform="matrix(1,0,0,1,0,167.15570160702293)"><svg viewBox="0 0 395.52 51.098174159232606" height="51.098174159232606" width="395.52"><g transform="matrix(1,0,0,1,0,0)"><svg width="395.52" viewBox="1 -34.584999999999994 456.97941176315 59.044999999999995" height="51.098174159232606" data-palette-color="#5ebc67"><path d="M10.74-28.76L10.74-28.76Q10.6-28.22 10.18-27.71 9.77-27.2 9.25-26.88 8.74-26.56 8.2-26.46 7.67-26.37 7.32-26.66L7.32-26.66Q6.3-27.44 6.25-28.34 6.2-29.25 6.69-30.05 7.18-30.86 7.91-31.42 8.64-31.98 9.18-32.08L9.18-32.08Q9.72-32.18 10.08-31.86 10.45-31.54 10.64-31.03 10.84-30.52 10.86-29.88 10.89-29.25 10.74-28.76ZM4-18.36L4-18.36Q4.25-18.65 4.93-18.85 5.62-19.04 6.35-19.17 7.08-19.29 7.69-19.31 8.3-19.34 8.4-19.29L8.4-19.29Q8.45-19.24 8.15-18.26 7.86-17.29 7.42-15.97 6.98-14.65 6.49-13.26 6.01-11.87 5.76-10.99L5.76-10.99Q5.52-10.11 5.18-9.01 4.83-7.91 4.57-6.86 4.3-5.81 4.2-4.88 4.1-3.96 4.35-3.47L4.35-3.47Q4.59-2.88 4.88-2.66 5.18-2.44 5.52-2.44L5.52-2.44Q6.49-2.44 7.98-3.52 9.47-4.59 11.01-6.08 12.55-7.57 13.87-9.11 15.19-10.64 15.82-11.57L15.82-11.57Q16.21-12.06 16.63-12.21 17.04-12.35 17.31-12.16 17.58-11.96 17.6-11.52 17.63-11.08 17.29-10.5L17.29-10.5Q16.5-9.13 14.99-7.25 13.48-5.37 11.77-3.64 10.06-1.9 8.42-0.68 6.79 0.54 5.76 0.59L5.76 0.59Q4.93 0.63 4.13 0.32 3.32 0 2.66-0.56 2-1.12 1.56-1.88 1.12-2.64 1.07-3.47L1.07-3.47Q0.93-4.69 1.07-6.81 1.22-8.94 1.61-11.16 2-13.38 2.61-15.38 3.22-17.38 4-18.36ZM36.47-2.25L36.47-2.25Q36.47-3.27 36.69-4.59 36.91-5.91 37.25-7.3 37.6-8.69 37.94-10.01 38.28-11.33 38.52-12.35L38.52-12.35Q38.82-13.62 38.47-14.31 38.13-14.99 37.3-14.99L37.3-14.99Q36.91-14.99 35.76-14.31 34.62-13.62 33.27-11.94 31.93-10.25 30.64-7.4 29.34-4.54 28.61-0.15L28.61-0.15Q27.68 0.34 26.85 0.49L26.85 0.49Q26.41 0.59 26.07 0.63L26.07 0.63Q25.1 0.68 24.8 0.32 24.51-0.05 24.9-1.46L24.9-1.46Q25.1-2.15 25.61-3.66 26.12-5.18 26.61-6.96 27.1-8.74 27.46-10.52 27.83-12.3 27.83-13.62L27.83-13.62Q27.83-14.55 27.51-14.89 27.19-15.23 26.61-15.23L26.61-15.23Q26.17-15.23 25.14-14.75 24.12-14.26 22.85-12.84 21.58-11.43 20.33-8.91 19.09-6.4 18.21-2.39L18.21-2.39 18.21-2.49Q18.11-2.1 18.02-1.71L18.02-1.71Q17.92-1.37 17.87-0.98 17.82-0.59 17.72-0.24L17.72-0.24 15.28 0.83Q15.04 0.93 14.67 0.98 14.3 1.03 13.99 0.85 13.67 0.68 13.52 0.15 13.38-0.39 13.62-1.46L13.62-1.46 16.7-14.21Q16.84-14.84 16.94-15.43L16.94-15.43Q17.04-15.97 17.06-16.48 17.09-16.99 16.99-17.33L16.99-17.33Q17.82-17.72 18.45-17.92 19.09-18.12 19.48-18.21L19.48-18.21Q19.97-18.36 20.31-18.36L20.31-18.36Q21.87-18.36 21.34-15.67L21.34-15.67Q21.14-14.89 20.75-13.38L20.75-13.38Q21.68-14.55 22.73-15.6 23.78-16.65 24.85-17.48 25.93-18.31 27.02-18.8 28.12-19.29 29.2-19.29L29.2-19.29Q30.03-19.29 30.59-18.8 31.15-18.31 31.47-17.5 31.78-16.7 31.83-15.6 31.88-14.5 31.74-13.33L31.74-13.33Q32.52-14.36 33.47-15.41 34.42-16.46 35.47-17.29 36.52-18.12 37.64-18.65 38.77-19.19 39.89-19.19L39.89-19.19Q41.21-19.19 41.92-18.41 42.62-17.63 42.89-16.41 43.16-15.19 43.04-13.77 42.92-12.35 42.62-11.04L42.62-11.04 40.96-4.44Q40.43-2 41.99-2L41.99-2Q43.21-2 44.68-3.17 46.14-4.35 47.53-5.96 48.92-7.57 50.14-9.28 51.36-10.99 52.19-12.01L52.19-12.01Q52.49-12.35 52.81-12.4 53.12-12.45 53.34-12.28 53.56-12.11 53.59-11.72 53.61-11.33 53.32-10.74L53.32-10.74Q52.34-9.03 50.93-6.96 49.51-4.88 47.82-3.08 46.14-1.27 44.24-0.05 42.33 1.17 40.28 1.17L40.28 1.17Q39.6 1.17 38.94 1.03 38.28 0.88 37.72 0.49 37.16 0.1 36.81-0.56 36.47-1.22 36.47-2.25ZM72.36-2.25L72.36-2.25Q72.36-3.27 72.58-4.59 72.8-5.91 73.14-7.3 73.48-8.69 73.82-10.01 74.16-11.33 74.41-12.35L74.41-12.35Q74.7-13.62 74.36-14.31 74.02-14.99 73.19-14.99L73.19-14.99Q72.8-14.99 71.65-14.31 70.5-13.62 69.16-11.94 67.82-10.25 66.52-7.4 65.23-4.54 64.5-0.15L64.5-0.15Q63.57 0.34 62.74 0.49L62.74 0.49Q62.3 0.59 61.96 0.63L61.96 0.63Q60.98 0.68 60.69 0.32 60.4-0.05 60.79-1.46L60.79-1.46Q60.98-2.15 61.49-3.66 62.01-5.18 62.5-6.96 62.98-8.74 63.35-10.52 63.72-12.3 63.72-13.62L63.72-13.62Q63.72-14.55 63.4-14.89 63.08-15.23 62.5-15.23L62.5-15.23Q62.06-15.23 61.03-14.75 60-14.26 58.74-12.84 57.47-11.43 56.22-8.91 54.98-6.4 54.1-2.39L54.1-2.39 54.1-2.49Q54-2.1 53.9-1.71L53.9-1.71Q53.8-1.37 53.75-0.98 53.71-0.59 53.61-0.24L53.61-0.24 51.17 0.83Q50.92 0.93 50.56 0.98 50.19 1.03 49.87 0.85 49.56 0.68 49.41 0.15 49.26-0.39 49.51-1.46L49.51-1.46 52.58-14.21Q52.73-14.84 52.83-15.43L52.83-15.43Q52.92-15.97 52.95-16.48 52.97-16.99 52.88-17.33L52.88-17.33Q53.71-17.72 54.34-17.92 54.98-18.12 55.37-18.21L55.37-18.21Q55.85-18.36 56.2-18.36L56.2-18.36Q57.76-18.36 57.22-15.67L57.22-15.67Q57.03-14.89 56.64-13.38L56.64-13.38Q57.56-14.55 58.61-15.6 59.66-16.65 60.74-17.48 61.81-18.31 62.91-18.8 64.01-19.29 65.08-19.29L65.08-19.29Q65.91-19.29 66.47-18.8 67.04-18.31 67.35-17.5 67.67-16.7 67.72-15.6 67.77-14.5 67.62-13.33L67.62-13.33Q68.4-14.36 69.36-15.41 70.31-16.46 71.36-17.29 72.41-18.12 73.53-18.65 74.65-19.19 75.78-19.19L75.78-19.19Q77.09-19.19 77.8-18.41 78.51-17.63 78.78-16.41 79.05-15.19 78.93-13.77 78.8-12.35 78.51-11.04L78.51-11.04 76.85-4.44Q76.31-2 77.88-2L77.88-2Q79.1-2 80.56-3.17 82.03-4.35 83.42-5.96 84.81-7.57 86.03-9.28 87.25-10.99 88.08-12.01L88.08-12.01Q88.37-12.35 88.69-12.4 89.01-12.45 89.23-12.28 89.45-12.11 89.47-11.72 89.5-11.33 89.2-10.74L89.2-10.74Q88.23-9.03 86.81-6.96 85.4-4.88 83.71-3.08 82.03-1.27 80.12-0.05 78.22 1.17 76.17 1.17L76.17 1.17Q75.48 1.17 74.82 1.03 74.16 0.88 73.6 0.49 73.04 0.1 72.7-0.56 72.36-1.22 72.36-2.25ZM107.61-10.16L107.61-10.16Q106.14-8.01 104.29-5.98 102.43-3.96 100.36-2.37 98.28-0.78 96.11 0.2 93.94 1.17 91.89 1.17L91.89 1.17Q90.81 1.17 89.57 0.66 88.32 0.15 87.3-0.93 86.27-2 85.66-3.71 85.05-5.42 85.3-7.86L85.3-7.86Q85.49-9.86 86.54-12.08 87.59-14.31 89.13-16.16 90.67-18.02 92.6-19.24 94.52-20.46 96.48-20.46L96.48-20.46Q98.33-20.46 99.16-19.53 99.99-18.6 99.89-17.24L99.89-17.24Q99.75-15.72 99.04-14.45 98.33-13.18 97.36-12.16 96.38-11.13 95.28-10.3 94.18-9.47 93.21-8.79L93.21-8.79Q92.13-8.06 91.15-7.4 90.18-6.74 89.45-6.2L89.45-6.2Q89.49-4.98 89.89-4.15 90.28-3.32 90.86-2.81 91.45-2.29 92.2-2.08 92.96-1.86 93.74-1.86L93.74-1.86Q95.4-1.86 97.21-2.91 99.02-3.96 100.75-5.44 102.48-6.93 103.97-8.54 105.46-10.16 106.44-11.33L106.44-11.33Q106.78-11.72 107.15-11.79 107.51-11.87 107.73-11.69 107.95-11.52 107.95-11.11 107.95-10.69 107.61-10.16ZM95.11-17.68L95.11-17.68Q94.52-17.68 93.72-17.09 92.91-16.5 92.13-15.41 91.35-14.31 90.67-12.72 89.98-11.13 89.64-9.08L89.64-9.08Q90.23-9.52 90.91-9.99 91.59-10.45 92.28-10.99L92.28-10.99Q94.38-12.6 95.21-13.82 96.04-15.04 96.14-15.92L96.14-15.92Q96.23-16.85 95.94-17.26 95.65-17.68 95.11-17.68ZM102.24-0.24L102.24-0.24Q101.89 0.29 101.48 0.46 101.06 0.63 100.75 0.51 100.43 0.39 100.33 0 100.23-0.39 100.53-0.98L100.53-0.98Q100.67-1.27 101.19-2.29 101.7-3.32 102.41-4.76 103.12-6.2 103.95-7.89 104.78-9.57 105.53-11.08 106.29-12.6 106.92-13.79 107.56-14.99 107.85-15.53L107.85-15.53Q107.31-16.02 107.12-16.24 106.92-16.46 106.83-17.19L106.83-17.19Q106.73-17.82 107.12-18.85 107.51-19.87 108.14-20.83 108.78-21.78 109.56-22.46 110.34-23.14 111.07-23.14L111.07-23.14Q112.44-23.14 113-22.27 113.56-21.39 113.66-20.46L113.66-20.46Q113.76-19.82 113.56-18.85 113.37-17.87 112.83-17.09L112.83-17.09Q112.98-16.99 113.22-16.87 113.47-16.75 114-16.75L114-16.75Q114.78-16.75 115.1-16.85 115.42-16.94 116.1-16.94L116.1-16.94Q116.93-16.94 117.47-16.53 118.01-16.11 118.35-15.5 118.69-14.89 118.86-14.18 119.03-13.48 119.08-12.89L119.08-12.89Q119.23-11.67 118.45-10.35 117.67-9.03 116.54-7.47L116.54-7.47Q115.86-6.49 115.18-5.27 114.49-4.05 114.59-3.08L114.59-3.08Q114.69-2.44 114.93-2.05 115.18-1.66 116.3-1.66L116.3-1.66Q117.13-1.66 118.13-2.27 119.13-2.88 120.18-3.83 121.23-4.79 122.26-5.93 123.28-7.08 124.16-8.18 125.04-9.28 125.65-10.16 126.26-11.04 126.55-11.43L126.55-11.43Q126.8-11.82 127.19-11.96 127.58-12.11 127.87-11.96 128.16-11.82 128.24-11.38 128.31-10.94 127.87-10.21L127.87-10.21Q127.58-9.72 126.87-8.64 126.16-7.57 125.16-6.25 124.16-4.93 122.94-3.54 121.72-2.15 120.38-1 119.03 0.15 117.69 0.88 116.35 1.61 115.13 1.61L115.13 1.61Q113.86 1.61 113.03 1.12 112.2 0.63 111.68-0.07 111.17-0.78 110.95-1.64 110.73-2.49 110.78-3.22L110.78-3.22Q110.83-3.81 111.1-4.47 111.37-5.13 111.73-5.83 112.1-6.54 112.51-7.25 112.93-7.96 113.27-8.64L113.27-8.64Q114.1-10.06 114.61-11.06 115.13-12.06 115.13-12.74L115.13-12.74Q115.13-13.18 114.93-13.53 114.74-13.87 114.3-13.87L114.3-13.87Q114-13.87 113.88-13.84 113.76-13.82 113.64-13.82 113.52-13.82 113.3-13.79 113.08-13.77 112.64-13.77L112.64-13.77Q112-13.77 111.56-13.96 111.12-14.16 110.73-14.26L110.73-14.26Q110.54-13.92 109.85-12.79 109.17-11.67 108.27-10.16 107.36-8.64 106.36-6.98 105.36-5.32 104.48-3.88 103.6-2.44 102.99-1.44 102.38-0.44 102.24-0.24ZM131.29-1.66L131.29-1.66Q131.58-1.46 132.04-1.46 132.51-1.46 132.97-1.66 133.43-1.86 133.85-2.2 134.26-2.54 134.46-3.08L134.46-3.08Q134.66-3.61 134.46-4.61 134.26-5.62 133.85-6.76 133.43-7.91 132.95-9.08 132.46-10.25 132.12-11.23L132.12-11.23Q131.82-11.96 131.63-12.6L131.63-12.6Q131.43-13.13 131.26-13.65 131.09-14.16 130.99-14.36L130.99-14.36Q130.75-13.96 130.14-13.09 129.53-12.21 128.82-11.25 128.11-10.3 127.48-9.5 126.84-8.69 126.6-8.4L126.6-8.4Q126.21-7.96 125.84-7.89 125.48-7.81 125.23-8.03 124.99-8.25 124.96-8.67 124.94-9.08 125.33-9.67L125.33-9.67Q125.62-10.06 126.21-10.91 126.79-11.77 127.38-12.67 127.97-13.57 128.45-14.28 128.94-14.99 128.99-15.14L128.99-15.14Q129.09-15.53 128.72-16.16 128.36-16.8 128.6-17.63L128.6-17.63Q128.8-18.31 129.48-19.21 130.16-20.12 131.09-20.85 132.02-21.58 133-21.95 133.97-22.31 134.75-21.92L134.75-21.92Q135.39-21.53 135.78-21.07 136.17-20.61 136.07-20.12L136.07-20.12Q135.97-19.87 135.78-19.48L135.78-19.48Q135.58-19.09 135.19-18.53 134.8-17.97 134.07-17.09L134.07-17.09Q134.22-15.97 134.48-15.04 134.75-14.11 135-13.43L135-13.43Q135.29-12.6 135.63-11.91L135.63-11.91Q136.07-11.04 136.56-10.11 137.05-9.18 137.44-8.28 137.83-7.37 138.07-6.59 138.32-5.81 138.22-5.27L138.22-5.27Q138.07-4.44 137.37-3.27 136.66-2.1 135.61-1 134.56 0.1 133.22 0.88 131.87 1.66 130.41 1.66L130.41 1.66Q129.38 1.66 128.43 1.03 127.48 0.39 126.82-0.46 126.16-1.32 125.84-2.15 125.52-2.98 125.77-3.42L125.77-3.42Q126.06-4 126.31-4.35 126.55-4.69 127.04-5.13L127.04-5.13Q127.23-5.27 127.53-5.47L127.53-5.47Q127.77-5.62 128.21-5.76 128.65-5.91 129.24-6.1L129.24-6.1Q129.72-4.59 130.11-3.74 130.51-2.88 130.75-2.39L130.75-2.39Q131.04-1.86 131.29-1.66ZM164.1-10.16L164.1-10.16Q162.63-8.01 160.78-5.98 158.92-3.96 156.85-2.37 154.77-0.78 152.6 0.2 150.42 1.17 148.37 1.17L148.37 1.17Q147.3 1.17 146.05 0.66 144.81 0.15 143.78-0.93 142.76-2 142.15-3.71 141.54-5.42 141.78-7.86L141.78-7.86Q141.98-9.86 143.03-12.08 144.08-14.31 145.61-16.16 147.15-18.02 149.08-19.24 151.01-20.46 152.96-20.46L152.96-20.46Q154.82-20.46 155.65-19.53 156.48-18.6 156.38-17.24L156.38-17.24Q156.24-15.72 155.53-14.45 154.82-13.18 153.84-12.16 152.87-11.13 151.77-10.3 150.67-9.47 149.69-8.79L149.69-8.79Q148.62-8.06 147.64-7.4 146.66-6.74 145.93-6.2L145.93-6.2Q145.98-4.98 146.37-4.15 146.76-3.32 147.35-2.81 147.93-2.29 148.69-2.08 149.45-1.86 150.23-1.86L150.23-1.86Q151.89-1.86 153.7-2.91 155.5-3.96 157.24-5.44 158.97-6.93 160.46-8.54 161.95-10.16 162.92-11.33L162.92-11.33Q163.27-11.72 163.63-11.79 164-11.87 164.22-11.69 164.44-11.52 164.44-11.11 164.44-10.69 164.1-10.16ZM151.6-17.68L151.6-17.68Q151.01-17.68 150.2-17.09 149.4-16.5 148.62-15.41 147.84-14.31 147.15-12.72 146.47-11.13 146.13-9.08L146.13-9.08Q146.71-9.52 147.4-9.99 148.08-10.45 148.76-10.99L148.76-10.99Q150.86-12.6 151.69-13.82 152.52-15.04 152.62-15.92L152.62-15.92Q152.72-16.85 152.43-17.26 152.13-17.68 151.6-17.68ZM185.33-28.76L185.33-28.76Q185.19-28.22 184.77-27.71 184.36-27.2 183.84-26.88 183.33-26.56 182.79-26.46 182.26-26.37 181.91-26.66L181.91-26.66Q180.89-27.44 180.84-28.34 180.79-29.25 181.28-30.05 181.77-30.86 182.5-31.42 183.23-31.98 183.77-32.08L183.77-32.08Q184.31-32.18 184.67-31.86 185.04-31.54 185.23-31.03 185.43-30.52 185.45-29.88 185.48-29.25 185.33-28.76ZM178.59-18.36L178.59-18.36Q178.84-18.65 179.52-18.85 180.2-19.04 180.94-19.17 181.67-19.29 182.28-19.31 182.89-19.34 182.99-19.29L182.99-19.29Q183.04-19.24 182.74-18.26 182.45-17.29 182.01-15.97 181.57-14.65 181.08-13.26 180.6-11.87 180.35-10.99L180.35-10.99Q180.11-10.11 179.77-9.01 179.42-7.91 179.15-6.86 178.89-5.81 178.79-4.88 178.69-3.96 178.94-3.47L178.94-3.47Q179.18-2.88 179.47-2.66 179.77-2.44 180.11-2.44L180.11-2.44Q181.08-2.44 182.57-3.52 184.06-4.59 185.6-6.08 187.14-7.57 188.46-9.11 189.77-10.64 190.41-11.57L190.41-11.57Q190.8-12.06 191.22-12.21 191.63-12.35 191.9-12.16 192.17-11.96 192.19-11.52 192.22-11.08 191.87-10.5L191.87-10.5Q191.09-9.13 189.58-7.25 188.07-5.37 186.36-3.64 184.65-1.9 183.01-0.68 181.38 0.54 180.35 0.59L180.35 0.59Q179.52 0.63 178.72 0.32 177.91 0 177.25-0.56 176.59-1.12 176.15-1.88 175.71-2.64 175.66-3.47L175.66-3.47Q175.52-4.69 175.66-6.81 175.81-8.94 176.2-11.16 176.59-13.38 177.2-15.38 177.81-17.38 178.59-18.36ZM202.81 1.22L202.81 1.22Q201.69 1.22 200.88 0.81 200.08 0.39 199.59-0.29 199.1-0.98 198.95-1.88 198.81-2.78 199.05-3.81L199.05-3.81Q199.2-4.49 199.54-5.64 199.88-6.79 200.25-8.13 200.61-9.47 200.93-10.82 201.25-12.16 201.34-13.26 201.44-14.36 201.25-15.06 201.05-15.77 200.42-15.77L200.42-15.77Q199.64-15.77 198.81-15.26 197.98-14.75 197.12-13.87 196.27-12.99 195.41-11.84 194.56-10.69 193.73-9.47L193.73-9.47Q193.29-7.81 193-6.57 192.7-5.32 192.48-4.32 192.26-3.32 192.07-2.56 191.87-1.81 191.73-1.12L191.73-1.12Q191.58-0.63 190.85-0.17 190.11 0.29 189.28 0.59 188.45 0.88 187.84 0.88 187.23 0.88 187.33 0.44L187.33 0.44Q187.38 0.15 187.65-0.88 187.92-1.9 188.28-3.3 188.65-4.69 189.04-6.25 189.43-7.81 189.77-9.23L189.77-9.23Q190.02-10.35 190.31-11.72L190.31-11.72Q190.55-12.89 190.92-14.45 191.29-16.02 191.77-17.87L191.77-17.87Q192.12-18.16 192.48-18.33 192.85-18.51 193.24-18.6L193.24-18.6Q193.63-18.75 194.07-18.8L194.07-18.8Q194.46-18.8 194.85-18.75L194.85-18.75Q195.19-18.7 195.56-18.58 195.92-18.46 196.22-18.21L196.22-18.21Q196.07-17.87 195.88-17.26 195.68-16.65 195.49-15.97L195.49-15.97Q195.29-15.19 195-14.36L195-14.36Q195.63-15.23 196.44-16.14 197.24-17.04 198.2-17.77 199.15-18.51 200.22-18.97 201.3-19.43 202.42-19.43L202.42-19.43Q203.35-19.43 204.08-18.9 204.81-18.36 205.23-17.41 205.64-16.46 205.71-15.14 205.79-13.82 205.35-12.26L205.35-12.26 204.81-10.11Q204.57-9.08 204.2-7.69 203.83-6.3 203.3-4.64L203.3-4.64Q203-3.56 203.08-2.78 203.15-2 204.03-2L204.03-2Q204.91-2 206.25-3.08 207.59-4.15 208.96-5.66 210.33-7.18 211.55-8.76 212.77-10.35 213.41-11.33L213.41-11.33Q213.84-11.96 214.24-12.16 214.63-12.35 214.85-12.21 215.07-12.06 215.07-11.55 215.07-11.04 214.67-10.25L214.67-10.25Q214.33-9.57 213.62-8.45 212.92-7.32 211.94-6.05 210.96-4.79 209.84-3.49 208.72-2.2 207.5-1.15 206.28-0.1 205.08 0.56 203.88 1.22 202.81 1.22ZM229.42-12.35L229.42-12.35Q229.61-12.65 229.93-12.72 230.25-12.79 230.44-12.65 230.64-12.5 230.66-12.16 230.69-11.82 230.39-11.23L230.39-11.23Q229.42-9.38 227.83-7.23 226.24-5.08 224.49-3.2 222.73-1.32 221.07-0.1 219.41 1.12 218.29 1.12L218.29 1.12Q216.67 1.12 215.6 0.49 214.53-0.15 213.92-1.07 213.31-2 213.06-3.1 212.82-4.2 212.91-5.13L212.91-5.13Q212.96-5.91 213.26-7.93 213.55-9.96 214.04-12.62 214.53-15.28 215.14-18.33 215.75-21.39 216.43-24.22L216.43-24.22Q215.6-24.12 214.77-24.02 213.94-23.93 213.26-23.93L213.26-23.93Q211.69-23.93 210.3-24.29 208.91-24.66 208.23-25L208.23-25Q207.84-25.2 207.89-25.56 207.93-25.93 208.18-26.29 208.42-26.66 208.79-26.93 209.15-27.2 209.45-27.2L209.45-27.2Q210.38-27.1 211.45-27.03 212.52-26.95 213.79-27L213.79-27Q214.72-27.05 215.58-27.15 216.43-27.25 217.26-27.39L217.26-27.39Q217.89-29.74 218.51-31.47 219.12-33.2 219.6-33.89L219.6-33.89Q219.75-34.13 220.26-34.3 220.78-34.47 221.36-34.55 221.95-34.62 222.48-34.55 223.02-34.47 223.27-34.18L223.27-34.18Q223.51-33.79 223.46-32.18 223.41-30.57 222.92-28.08L222.92-28.08Q224.98-28.08 226.56-27.86 228.15-27.64 229.27-27.37 230.39-27.1 231.08-26.83 231.76-26.56 232.1-26.46L232.1-26.46Q232.45-26.37 232.47-25.98 232.49-25.59 232.32-25.17 232.15-24.76 231.76-24.46 231.37-24.17 230.88-24.27L230.88-24.27Q230.39-24.32 229.78-24.46 229.17-24.61 228.32-24.71 227.47-24.8 226.29-24.9 225.12-25 223.56-25L223.56-25Q223.27-25 222.9-24.98 222.53-24.95 222.14-24.95L222.14-24.95Q221.95-24.17 221.78-23.41 221.61-22.66 221.31-21.83L221.31-21.83Q220.68-19.87 219.85-17.58L219.85-17.58Q219.12-15.58 218.09-12.99 217.06-10.4 215.8-7.47L215.8-7.47Q215.5-5.37 215.87-4.27 216.23-3.17 216.77-2.69L216.77-2.69Q217.41-2.15 218.33-2.1L218.33-2.1Q219.07-2 220.12-2.61 221.17-3.22 222.29-4.25 223.41-5.27 224.56-6.49 225.71-7.71 226.68-8.89 227.66-10.06 228.39-11.01 229.13-11.96 229.42-12.35ZM240.94-7.76L240.94-7.76Q240.45-5.91 239.62-4.3 238.79-2.69 237.64-1.51 236.5-0.34 235.06 0.32 233.62 0.98 231.91 0.98L231.91 0.98Q229.9 0.98 228.76 0.12 227.61-0.73 227.05-2 226.49-3.27 226.36-4.79 226.24-6.3 226.24-7.62L226.24-7.62Q226.24-8.54 226.46-9.67 226.68-10.79 227.07-11.96 227.46-13.13 228.07-14.31 228.68-15.48 229.51-16.46L229.51-16.46Q229.81-17.29 230.42-17.92 231.03-18.55 231.83-18.97 232.64-19.38 233.57-19.6 234.49-19.82 235.37-19.82L235.37-19.82Q235.52-19.82 235.64-19.78 235.76-19.73 235.91-19.68L235.91-19.68Q236.54-19.63 237.5-19.19 238.45-18.75 239.35-17.87 240.26-16.99 240.89-15.65 241.53-14.31 241.53-12.4L241.53-12.4Q241.53-12.01 241.48-11.45 241.43-10.89 241.38-10.5L241.38-10.5Q242.5-10.94 243.72-11.57 244.94-12.21 246.09-12.92 247.24-13.62 248.21-14.36 249.19-15.09 249.78-15.67L249.78-15.67Q250.27-16.11 250.61-16.16 250.95-16.21 251.1-15.97 251.24-15.72 251.14-15.28 251.05-14.84 250.61-14.31L250.61-14.31Q250.36-14.01 249.36-13.13 248.36-12.26 246.99-11.23 245.63-10.21 244.02-9.23 242.4-8.25 240.94-7.76ZM232.69-15.19L232.69-15.19Q232.54-14.75 232.54-14.26L232.54-14.26Q232.54-13.48 232.64-12.62 232.74-11.77 233.13-11.08 233.52-10.4 234.37-9.94 235.23-9.47 236.74-9.47L236.74-9.47Q236.98-9.47 237.23-9.5 237.47-9.52 237.72-9.57L237.72-9.57Q237.86-10.21 237.99-10.72 238.11-11.23 238.11-11.62L238.11-11.62Q238.2-12.55 238.11-13.53 238.01-14.5 237.74-15.31 237.47-16.11 237.06-16.63 236.64-17.14 236.06-17.14L236.06-17.14Q235.13-17.14 234.27-16.63 233.42-16.11 232.69-15.19ZM229.56-6.59L229.56-6.59Q229.56-5.71 229.66-4.86 229.76-4 230.05-3.34 230.34-2.69 230.83-2.27 231.32-1.86 232.1-1.86L232.1-1.86Q232.98-1.86 233.71-2.27 234.45-2.69 235.03-3.34 235.62-4 236.08-4.86 236.54-5.71 236.89-6.64L236.89-6.64Q236.54-6.59 236.23-6.57 235.91-6.54 235.52-6.54L235.52-6.54Q233.66-6.54 232.32-7.64 230.98-8.74 230.25-10.45L230.25-10.45Q229.95-9.42 229.76-8.45 229.56-7.47 229.56-6.59ZM278.19-12.35L278.19-12.35Q278.39-12.65 278.7-12.72 279.02-12.79 279.22-12.65 279.41-12.5 279.44-12.16 279.46-11.82 279.17-11.23L279.17-11.23Q278.19-9.38 276.6-7.23 275.02-5.08 273.26-3.2 271.5-1.32 269.84-0.1 268.18 1.12 267.06 1.12L267.06 1.12Q265.45 1.12 264.37 0.49 263.3-0.15 262.69-1.07 262.08-2 261.83-3.1 261.59-4.2 261.69-5.13L261.69-5.13Q261.74-5.91 262.03-7.93 262.32-9.96 262.81-12.62 263.3-15.28 263.91-18.33 264.52-21.39 265.2-24.22L265.2-24.22Q264.37-24.12 263.54-24.02 262.71-23.93 262.03-23.93L262.03-23.93Q260.47-23.93 259.07-24.29 257.68-24.66 257-25L257-25Q256.61-25.2 256.66-25.56 256.71-25.93 256.95-26.29 257.19-26.66 257.56-26.93 257.93-27.2 258.22-27.2L258.22-27.2Q259.15-27.1 260.22-27.03 261.3-26.95 262.57-27L262.57-27Q263.49-27.05 264.35-27.15 265.2-27.25 266.03-27.39L266.03-27.39Q266.67-29.74 267.28-31.47 267.89-33.2 268.38-33.89L268.38-33.89Q268.52-34.13 269.03-34.3 269.55-34.47 270.13-34.55 270.72-34.62 271.26-34.55 271.79-34.47 272.04-34.18L272.04-34.18Q272.28-33.79 272.23-32.18 272.18-30.57 271.7-28.08L271.7-28.08Q273.75-28.08 275.33-27.86 276.92-27.64 278.04-27.37 279.17-27.1 279.85-26.83 280.53-26.56 280.88-26.46L280.88-26.46Q281.22-26.37 281.24-25.98 281.27-25.59 281.1-25.17 280.92-24.76 280.53-24.46 280.14-24.17 279.66-24.27L279.66-24.27Q279.17-24.32 278.56-24.46 277.95-24.61 277.09-24.71 276.24-24.8 275.07-24.9 273.89-25 272.33-25L272.33-25Q272.04-25 271.67-24.98 271.31-24.95 270.91-24.95L270.91-24.95Q270.72-24.17 270.55-23.41 270.38-22.66 270.08-21.83L270.08-21.83Q269.45-19.87 268.62-17.58L268.62-17.58Q267.89-15.58 266.86-12.99 265.84-10.4 264.57-7.47L264.57-7.47Q264.27-5.37 264.64-4.27 265.01-3.17 265.54-2.69L265.54-2.69Q266.18-2.15 267.11-2.1L267.11-2.1Q267.84-2 268.89-2.61 269.94-3.22 271.06-4.25 272.18-5.27 273.33-6.49 274.48-7.71 275.46-8.89 276.43-10.06 277.16-11.01 277.9-11.96 278.19-12.35ZM300.45-10.74L300.45-10.74Q300.8-11.13 301.16-11.16 301.53-11.18 301.75-10.96 301.97-10.74 301.94-10.3 301.92-9.86 301.53-9.33L301.53-9.33Q300.6-8.06 299.38-6.71 298.16-5.37 296.77-4.1 295.38-2.83 293.96-1.71 292.54-0.59 291.22 0.15L291.22 0.15Q289.76 0.98 288.76 0.98 287.76 0.98 286.78-0.29L286.78-0.29Q285.9-1.42 285.93-2.71 285.95-4 286.49-5.96L286.49-5.96Q286.83-7.18 287.44-8.86 288.05-10.55 288.42-12.11 288.78-13.67 288.64-14.77 288.49-15.87 287.37-15.87L287.37-15.87Q286.59-15.87 285.68-15.33 284.78-14.79 283.88-13.94 282.97-13.09 282.14-12.01 281.31-10.94 280.68-9.91L280.68-9.91Q280.29-8.01 279.9-6.15L279.9-6.15Q279.55-4.59 279.19-2.76 278.82-0.93 278.48 0.49L278.48 0.49Q278.19 0.73 277.85 0.83 277.5 0.93 277.21 0.93L277.21 0.93Q276.87 0.93 276.53 0.88L276.53 0.88Q276.14 0.78 275.8 0.59L275.8 0.59Q275.5 0.39 275.21 0.07 274.92-0.24 274.77-0.78L274.77-0.78Q276.97-9.81 278.24-15.28 279.51-20.75 280.19-23.63L280.19-23.63Q280.97-27.05 281.26-28.37L281.26-28.37Q281.41-29.3 281.51-30.18L281.51-30.18Q281.61-30.96 281.61-31.79 281.61-32.62 281.46-33.3L281.46-33.3Q281.85-33.54 282.31-33.69 282.78-33.84 283.22-33.94L283.22-33.94Q283.75-34.08 284.29-34.18L284.29-34.18Q284.83-34.28 285.27-34.28L285.27-34.28Q285.66-34.28 286-34.2 286.34-34.13 286.44-33.89L286.44-33.89Q286.73-33.64 286.71-32.91 286.68-32.18 286.59-31.4L286.59-31.4Q286.39-30.47 286.15-29.39L286.15-29.39Q285.12-25.44 283.85-21.7 282.58-17.97 281.51-13.72L281.51-13.72Q282.14-14.7 283.02-15.72 283.9-16.75 284.95-17.6 286-18.46 287.17-19.02 288.34-19.58 289.66-19.58L289.66-19.58Q290.35-19.58 290.96-19.36 291.57-19.14 292.03-18.63 292.49-18.12 292.74-17.26 292.98-16.41 292.93-15.14L292.93-15.14Q292.93-14.36 292.76-13.53 292.59-12.7 292.3-11.69 292.01-10.69 291.54-9.47 291.08-8.25 290.44-6.64L290.44-6.64Q290-5.52 289.76-4.74 289.52-3.96 289.86-3.37L289.86-3.37Q290.3-2.59 291.59-3 292.88-3.42 295.47-5.52L295.47-5.52Q296.06-6.01 296.79-6.74 297.52-7.47 298.21-8.23 298.89-8.98 299.48-9.67 300.06-10.35 300.45-10.74ZM320.67-10.16L320.67-10.16Q319.2-8.01 317.35-5.98 315.49-3.96 313.41-2.37 311.34-0.78 309.17 0.2 306.99 1.17 304.94 1.17L304.94 1.17Q303.87 1.17 302.62 0.66 301.38 0.15 300.35-0.93 299.33-2 298.72-3.71 298.11-5.42 298.35-7.86L298.35-7.86Q298.55-9.86 299.6-12.08 300.65-14.31 302.18-16.16 303.72-18.02 305.65-19.24 307.58-20.46 309.53-20.46L309.53-20.46Q311.39-20.46 312.22-19.53 313.05-18.6 312.95-17.24L312.95-17.24Q312.8-15.72 312.1-14.45 311.39-13.18 310.41-12.16 309.44-11.13 308.34-10.3 307.24-9.47 306.26-8.79L306.26-8.79Q305.19-8.06 304.21-7.4 303.23-6.74 302.5-6.2L302.5-6.2Q302.55-4.98 302.94-4.15 303.33-3.32 303.92-2.81 304.5-2.29 305.26-2.08 306.02-1.86 306.8-1.86L306.8-1.86Q308.46-1.86 310.27-2.91 312.07-3.96 313.81-5.44 315.54-6.93 317.03-8.54 318.52-10.16 319.49-11.33L319.49-11.33Q319.84-11.72 320.2-11.79 320.57-11.87 320.79-11.69 321.01-11.52 321.01-11.11 321.01-10.69 320.67-10.16ZM308.17-17.68L308.17-17.68Q307.58-17.68 306.77-17.09 305.97-16.5 305.19-15.41 304.41-14.31 303.72-12.72 303.04-11.13 302.7-9.08L302.7-9.08Q303.28-9.52 303.97-9.99 304.65-10.45 305.33-10.99L305.33-10.99Q307.43-12.6 308.26-13.82 309.09-15.04 309.19-15.92L309.19-15.92Q309.29-16.85 309-17.26 308.7-17.68 308.17-17.68ZM341.9-28.76L341.9-28.76Q341.75-28.22 341.34-27.71 340.92-27.2 340.41-26.88 339.9-26.56 339.36-26.46 338.82-26.37 338.48-26.66L338.48-26.66Q337.46-27.44 337.41-28.34 337.36-29.25 337.85-30.05 338.34-30.86 339.07-31.42 339.8-31.98 340.34-32.08L340.34-32.08Q340.88-32.18 341.24-31.86 341.61-31.54 341.8-31.03 342-30.52 342.02-29.88 342.05-29.25 341.9-28.76ZM335.16-18.36L335.16-18.36Q335.41-18.65 336.09-18.85 336.77-19.04 337.51-19.17 338.24-19.29 338.85-19.31 339.46-19.34 339.56-19.29L339.56-19.29Q339.61-19.24 339.31-18.26 339.02-17.29 338.58-15.97 338.14-14.65 337.65-13.26 337.16-11.87 336.92-10.99L336.92-10.99Q336.68-10.11 336.33-9.01 335.99-7.91 335.72-6.86 335.46-5.81 335.36-4.88 335.26-3.96 335.5-3.47L335.5-3.47Q335.75-2.88 336.04-2.66 336.33-2.44 336.68-2.44L336.68-2.44Q337.65-2.44 339.14-3.52 340.63-4.59 342.17-6.08 343.71-7.57 345.03-9.11 346.34-10.64 346.98-11.57L346.98-11.57Q347.37-12.06 347.78-12.21 348.2-12.35 348.47-12.16 348.74-11.96 348.76-11.52 348.79-11.08 348.44-10.5L348.44-10.5Q347.66-9.13 346.15-7.25 344.64-5.37 342.93-3.64 341.22-1.9 339.58-0.68 337.95 0.54 336.92 0.59L336.92 0.59Q336.09 0.63 335.28 0.32 334.48 0 333.82-0.56 333.16-1.12 332.72-1.88 332.28-2.64 332.23-3.47L332.23-3.47Q332.09-4.69 332.23-6.81 332.38-8.94 332.77-11.16 333.16-13.38 333.77-15.38 334.38-17.38 335.16-18.36ZM367.63-2.25L367.63-2.25Q367.63-3.27 367.85-4.59 368.07-5.91 368.41-7.3 368.75-8.69 369.1-10.01 369.44-11.33 369.68-12.35L369.68-12.35Q369.97-13.62 369.63-14.31 369.29-14.99 368.46-14.99L368.46-14.99Q368.07-14.99 366.92-14.31 365.78-13.62 364.43-11.94 363.09-10.25 361.8-7.4 360.5-4.54 359.77-0.15L359.77-0.15Q358.84 0.34 358.01 0.49L358.01 0.49Q357.57 0.59 357.23 0.63L357.23 0.63Q356.25 0.68 355.96 0.32 355.67-0.05 356.06-1.46L356.06-1.46Q356.25-2.15 356.77-3.66 357.28-5.18 357.77-6.96 358.26-8.74 358.62-10.52 358.99-12.3 358.99-13.62L358.99-13.62Q358.99-14.55 358.67-14.89 358.35-15.23 357.77-15.23L357.77-15.23Q357.33-15.23 356.3-14.75 355.28-14.26 354.01-12.84 352.74-11.43 351.49-8.91 350.25-6.4 349.37-2.39L349.37-2.39 349.37-2.49Q349.27-2.1 349.17-1.71L349.17-1.71Q349.08-1.37 349.03-0.98 348.98-0.59 348.88-0.24L348.88-0.24 346.44 0.83Q346.2 0.93 345.83 0.98 345.46 1.03 345.15 0.85 344.83 0.68 344.68 0.15 344.54-0.39 344.78-1.46L344.78-1.46 347.86-14.21Q348-14.84 348.1-15.43L348.1-15.43Q348.2-15.97 348.22-16.48 348.25-16.99 348.15-17.33L348.15-17.33Q348.98-17.72 349.61-17.92 350.25-18.12 350.64-18.21L350.64-18.21Q351.13-18.36 351.47-18.36L351.47-18.36Q353.03-18.36 352.49-15.67L352.49-15.67Q352.3-14.89 351.91-13.38L351.91-13.38Q352.84-14.55 353.89-15.6 354.94-16.65 356.01-17.48 357.08-18.31 358.18-18.8 359.28-19.29 360.36-19.29L360.36-19.29Q361.19-19.29 361.75-18.8 362.31-18.31 362.63-17.5 362.94-16.7 362.99-15.6 363.04-14.5 362.89-13.33L362.89-13.33Q363.68-14.36 364.63-15.41 365.58-16.46 366.63-17.29 367.68-18.12 368.8-18.65 369.93-19.19 371.05-19.19L371.05-19.19Q372.37-19.19 373.08-18.41 373.78-17.63 374.05-16.41 374.32-15.19 374.2-13.77 374.08-12.35 373.78-11.04L373.78-11.04 372.12-4.44Q371.59-2 373.15-2L373.15-2Q374.37-2 375.83-3.17 377.3-4.35 378.69-5.96 380.08-7.57 381.3-9.28 382.52-10.99 383.35-12.01L383.35-12.01Q383.65-12.35 383.96-12.4 384.28-12.45 384.5-12.28 384.72-12.11 384.75-11.72 384.77-11.33 384.48-10.74L384.48-10.74Q383.5-9.03 382.08-6.96 380.67-4.88 378.98-3.08 377.3-1.27 375.39-0.05 373.49 1.17 371.44 1.17L371.44 1.17Q370.76 1.17 370.1 1.03 369.44 0.88 368.88 0.49 368.31 0.1 367.97-0.56 367.63-1.22 367.63-2.25ZM405.81-9.72L405.81-9.72Q405.13-8.74 404.05-7.3 402.98-5.86 401.83-4.42 400.68-2.98 399.59-1.78 398.49-0.59 397.76-0.1L397.76-0.1Q397.27 0.2 396.63 0.39 396 0.59 395.34 0.63 394.68 0.68 394.09 0.56 393.51 0.44 393.07 0.15L393.07 0.15Q392.63-0.2 392.34-0.83L392.34-0.83Q392.09-1.37 391.87-2.25 391.65-3.13 391.7-4.44L391.7-4.44Q390.53-2.49 389.11-1.44 387.7-0.39 386.43 0.1L386.43 0.1Q384.96 0.63 383.5 0.73L383.5 0.73Q382.81 0.73 382.03 0.27 381.25-0.2 380.71-1.2 380.18-2.2 380.03-3.78 379.88-5.37 380.42-7.57L380.42-7.57Q381.1-10.55 382.59-12.99 384.08-15.43 385.84-17.16 387.6-18.9 389.31-19.78 391.02-20.65 392.14-20.56L392.14-20.56Q393.46-20.31 394.29-19.78L394.29-19.78Q394.97-19.29 395.19-18.33 395.41-17.38 394.39-15.82L394.39-15.82Q395.07-15.97 395.53-16.02 396-16.06 396.24-16.06L396.24-16.06Q396.53-16.06 396.63-16.02L396.63-16.02Q396.68-15.92 396.68-15.6 396.68-15.28 396.53-14.45 396.39-13.62 396.1-12.21 395.8-10.79 395.31-8.54L395.31-8.54Q395.22-8.11 395.14-7.74 395.07-7.37 395-7.01 394.92-6.64 394.83-6.15 394.73-5.66 394.58-4.93L394.58-4.93Q394.53-4.49 394.56-3.98 394.58-3.47 394.73-3.03 394.87-2.59 395.19-2.32 395.51-2.05 396.1-2.05L396.1-2.05Q396.58-2.05 397.36-2.66 398.15-3.27 399.02-4.22 399.9-5.18 400.86-6.32 401.81-7.47 402.64-8.54 403.47-9.62 404.13-10.45 404.79-11.28 405.08-11.67L405.08-11.67Q405.47-12.11 405.86-12.18 406.25-12.26 406.45-11.96 406.64-11.67 406.52-11.08 406.4-10.5 405.81-9.72ZM391.51-7.57L391.51-7.57Q391.75-8.54 392.09-9.86 392.43-11.18 392.68-12.4 392.92-13.62 393.04-14.43 393.17-15.23 392.97-15.19L392.97-15.19Q392.73-15.14 392.43-15.04L392.43-15.04Q392.19-14.94 391.8-14.89 391.41-14.84 391.02-14.75L391.02-14.75Q391.41-15.53 391.48-16.04 391.55-16.55 391.51-16.85L391.51-16.85Q391.46-17.19 391.31-17.38L391.31-17.38Q390.77-17.82 389.43-16.67 388.09-15.53 386.33-12.45L386.33-12.45Q385.6-11.18 385.16-9.74 384.72-8.3 384.55-7.03 384.38-5.76 384.47-4.81 384.57-3.86 384.86-3.56L384.86-3.56Q385.4-3.03 386.09-3.05 386.77-3.08 387.48-3.44 388.18-3.81 388.89-4.39 389.6-4.98 390.16-5.62 390.72-6.25 391.09-6.79 391.46-7.32 391.51-7.57ZM415.43 6.98L415.43 6.98Q415.18 8.15 414.82 9.91 414.45 11.67 413.99 13.62 413.52 15.58 412.91 17.5 412.3 19.43 411.57 20.97 410.84 22.51 409.96 23.49 409.08 24.46 408.01 24.46L408.01 24.46Q406.4 24.46 405.25 23.51 404.1 22.56 403.32 21.12 402.54 19.68 402.17 18.02 401.81 16.36 401.81 14.94L401.81 14.94Q401.81 12.99 402.15 11.69 402.49 10.4 403.34 9.23 404.2 8.06 405.66 6.74 407.13 5.42 409.42 3.47L409.42 3.47Q410.55 2.49 411.57 1.61 412.6 0.73 413.52 0L413.52 0Q413.77-0.98 413.99-1.83 414.21-2.69 414.35-3.37L414.35-3.37Q413.08-1.66 411.3-0.49 409.52 0.68 407.23 0.68L407.23 0.68Q405.13 0.68 403.83-1.2 402.54-3.08 402.54-6.74L402.54-6.74Q402.54-8.54 403.22-10.89 403.91-13.23 405.17-15.28 406.44-17.33 408.3-18.75 410.16-20.17 412.45-20.17L412.45-20.17Q413.52-20.17 414.31-19.63 415.09-19.09 415.62-18.29 416.16-17.48 416.45-16.58 416.75-15.67 416.89-14.89L416.89-14.89Q416.99-15.19 417.04-15.5 417.09-15.82 417.19-16.06L417.19-16.06Q417.67-17.72 418.28-18.33 418.9-18.95 420.12-18.95L420.12-18.95Q420.8-18.95 421.26-18.7 421.73-18.46 421.73-18.26L421.73-18.26Q421.48-17.72 421.34-17.43 421.19-17.14 421.04-16.82 420.9-16.5 420.75-16.02 420.6-15.53 420.36-14.6L420.36-14.6Q420.26-14.26 419.99-13.01 419.73-11.77 419.31-10.06 418.9-8.35 418.43-6.3 417.97-4.25 417.53-2.29L417.53-2.29Q418.9-3.08 420.36-4.2 421.83-5.32 423.14-6.49 424.46-7.67 425.49-8.72 426.51-9.77 427-10.45L427-10.45Q427.39-11.04 427.88-11.28 428.37-11.52 428.73-11.45 429.1-11.38 429.17-11.01 429.25-10.64 428.86-10.01L428.86-10.01Q427.73-8.2 426.12-6.52 424.51-4.83 422.83-3.39 421.14-1.95 419.55-0.85 417.97 0.24 416.84 0.93L416.84 0.93Q416.36 3.13 416.01 4.49 415.67 5.86 415.43 6.98ZM409.28-2.64L409.28-2.64Q410.3-2.64 411.2-3.17 412.11-3.71 412.84-4.42 413.57-5.13 414.06-5.86 414.55-6.59 414.79-7.03L414.79-7.03Q414.99-7.47 415.26-8.2 415.53-8.94 415.67-9.62 415.82-10.3 415.79-10.84 415.77-11.38 415.43-11.43L415.43-11.43Q415.14-11.47 414.96-11.82 414.79-12.16 414.7-12.6 414.6-13.04 414.57-13.48 414.55-13.92 414.5-14.26L414.5-14.26Q414.26-15.97 413.67-16.75 413.08-17.53 412.35-17.53L412.35-17.53Q411.13-17.53 410.03-16.55 408.93-15.58 408.08-14.04 407.23-12.5 406.74-10.67 406.25-8.84 406.25-7.18L406.25-7.18Q406.25-5.13 406.83-3.88 407.42-2.64 409.28-2.64ZM407.03 20.02L407.03 20.02Q408.01 20.02 408.62 18.58 409.23 17.14 409.91 14.65L409.91 14.65Q410.06 14.06 410.33 12.96 410.59 11.87 410.96 10.45 411.33 9.03 411.72 7.4 412.11 5.76 412.55 4.1L412.55 4.1Q412.16 4.44 411.74 4.81 411.33 5.18 410.89 5.66L410.89 5.66Q409.81 6.69 408.81 7.64 407.81 8.59 407.03 9.64 406.25 10.69 405.78 11.91 405.32 13.13 405.32 14.75L405.32 14.75Q405.32 16.36 405.44 17.38 405.57 18.41 405.78 18.99 406 19.58 406.32 19.8 406.64 20.02 407.03 20.02ZM447.65-10.16L447.65-10.16Q446.19-8.01 444.33-5.98 442.48-3.96 440.4-2.37 438.33-0.78 436.15 0.2 433.98 1.17 431.93 1.17L431.93 1.17Q430.86 1.17 429.61 0.66 428.37 0.15 427.34-0.93 426.31-2 425.7-3.71 425.09-5.42 425.34-7.86L425.34-7.86Q425.53-9.86 426.58-12.08 427.63-14.31 429.17-16.16 430.71-18.02 432.64-19.24 434.57-20.46 436.52-20.46L436.52-20.46Q438.38-20.46 439.21-19.53 440.04-18.6 439.94-17.24L439.94-17.24Q439.79-15.72 439.08-14.45 438.38-13.18 437.4-12.16 436.42-11.13 435.32-10.3 434.22-9.47 433.25-8.79L433.25-8.79Q432.17-8.06 431.2-7.4 430.22-6.74 429.49-6.2L429.49-6.2Q429.54-4.98 429.93-4.15 430.32-3.32 430.9-2.81 431.49-2.29 432.25-2.08 433-1.86 433.79-1.86L433.79-1.86Q435.45-1.86 437.25-2.91 439.06-3.96 440.79-5.44 442.53-6.93 444.01-8.54 445.5-10.16 446.48-11.33L446.48-11.33Q446.82-11.72 447.19-11.79 447.55-11.87 447.77-11.69 447.99-11.52 447.99-11.11 447.99-10.69 447.65-10.16ZM435.15-17.68L435.15-17.68Q434.57-17.68 433.76-17.09 432.96-16.5 432.17-15.41 431.39-14.31 430.71-12.72 430.03-11.13 429.68-9.08L429.68-9.08Q430.27-9.52 430.95-9.99 431.64-10.45 432.32-10.99L432.32-10.99Q434.42-12.6 435.25-13.82 436.08-15.04 436.18-15.92L436.18-15.92Q436.28-16.85 435.98-17.26 435.69-17.68 435.15-17.68ZM451.02-1.66L451.02-1.66Q451.31-1.46 451.78-1.46 452.24-1.46 452.7-1.66 453.17-1.86 453.58-2.2 454-2.54 454.19-3.08L454.19-3.08Q454.39-3.61 454.19-4.61 454-5.62 453.58-6.76 453.17-7.91 452.68-9.08 452.19-10.25 451.85-11.23L451.85-11.23Q451.56-11.96 451.36-12.6L451.36-12.6Q451.17-13.13 450.99-13.65 450.82-14.16 450.73-14.36L450.73-14.36Q450.48-13.96 449.87-13.09 449.26-12.21 448.55-11.25 447.85-10.3 447.21-9.5 446.58-8.69 446.33-8.4L446.33-8.4Q445.94-7.96 445.57-7.89 445.21-7.81 444.96-8.03 444.72-8.25 444.7-8.67 444.67-9.08 445.06-9.67L445.06-9.67Q445.36-10.06 445.94-10.91 446.53-11.77 447.11-12.67 447.7-13.57 448.19-14.28 448.68-14.99 448.72-15.14L448.72-15.14Q448.82-15.53 448.46-16.16 448.09-16.8 448.33-17.63L448.33-17.63Q448.53-18.31 449.21-19.21 449.9-20.12 450.82-20.85 451.75-21.58 452.73-21.95 453.7-22.31 454.49-21.92L454.49-21.92Q455.12-21.53 455.51-21.07 455.9-20.61 455.8-20.12L455.8-20.12Q455.71-19.87 455.51-19.48L455.51-19.48Q455.32-19.09 454.93-18.53 454.53-17.97 453.8-17.09L453.8-17.09Q453.95-15.97 454.22-15.04 454.49-14.11 454.73-13.43L454.73-13.43Q455.02-12.6 455.36-11.91L455.36-11.91Q455.8-11.04 456.29-10.11 456.78-9.18 457.17-8.28 457.56-7.37 457.81-6.59 458.05-5.81 457.95-5.27L457.95-5.27Q457.81-4.44 457.1-3.27 456.39-2.1 455.34-1 454.29 0.1 452.95 0.88 451.61 1.66 450.14 1.66L450.14 1.66Q449.11 1.66 448.16 1.03 447.21 0.39 446.55-0.46 445.89-1.32 445.57-2.15 445.26-2.98 445.5-3.42L445.5-3.42Q445.79-4 446.04-4.35 446.28-4.69 446.77-5.13L446.77-5.13Q446.97-5.27 447.26-5.47L447.26-5.47Q447.5-5.62 447.94-5.76 448.38-5.91 448.97-6.1L448.97-6.1Q449.46-4.59 449.85-3.74 450.24-2.88 450.48-2.39L450.48-2.39Q450.78-1.86 451.02-1.66Z" opacity="1" transform="matrix(1,0,0,1,0,0)" fill="#5ebc67" class="slogan-text-1" data-fill-palette-color="secondary" id="text-1"></path></svg></g></svg></g></svg></g></svg></g><g transform="matrix(1,0,0,1,0,55.03497490615299)"><svg viewBox="0 0 244.43135999999996 109.27519533278083" height="109.27519533278083" width="244.43135999999996"><g><svg xmlns="http://www.w3.org/2000/svg" xmlns:xlink="http://www.w3.org/1999/xlink" version="1.0" x="0" y="0" viewBox="5 32.65300000000001 90.02058228862379 40.24449527900199" enable-background="new 0 0 100 100" xml:space="preserve" height="109.27519533278083" width="244.43135999999996" class="icon-icon-0" data-fill-palette-color="accent" id="icon-0"><g fill="#5ebc67" data-fill-palette-color="accent"><path fill="#5ebc67" d="M79.831 68.229c-1.856-2.528-4.197-4.547-6.745-6.347-1.355-0.954-2.818-1.743-4.122-2.777-1.387-1.101-2.801-2.17-4.228-3.216-3.878-2.849-7.881-5.52-11.81-8.298-1.639-1.16-2.377-2.861-2.487-4.833-0.047-0.854 0.358-1.18 1.245-1.098 0.8 0.075 1.592 0.199 2.359 0.443 1.374 0.439 2.775 0.727 4.225 0.736 0.71 0.004 1.387-0.165 1.971-0.547 1.36-0.883 2.504-2.001 3.421-3.343 0.021-0.028-0.018-0.097-0.042-0.201-0.955 0-1.923 0.015-2.89-0.008-0.341-0.008-0.562 0.118-0.789 0.354-0.628 0.655-1.415 1.052-2.281 1.284-1.757 0.468-3.396-0.014-5.188-0.659 1.573-0.155 3.113 0.316 4.447-1.005-1.141 0-2.099-0.036-3.055 0.009-0.949 0.046-1.727 0.779-2.732 0.698 1.096 0.722 2.148 1.433 3.104 2.31-0.525-0.064-1.012-0.284-1.512-0.312-0.753-0.044-1.198-0.495-1.646-0.99-0.11-0.125-0.206-0.26-0.315-0.385-0.95-1.081-1.79-2.261-2.91-3.186-0.203-0.167-0.373-0.441-0.757-0.253 1.011 1.257 1.712 2.691 2.523 4.06-0.036 0.048-0.072 0.096-0.107 0.142-0.983-0.067-1.759-0.45-2.381-1.14-0.142-0.158-0.278-0.333-0.405-0.525-0.428-0.644-0.781-1.35-1.252-1.938-0.657-0.823-1.261-1.68-1.884-2.524-0.212-0.287-0.483-0.44-0.8-0.555-0.984-0.359-1.974-0.706-2.949-1.087-1.347-0.528-2.72-0.375-4.094-0.192-0.948 0.126-1.432 0.768-1.328 1.838 0.08 0.827 0.145 1.668 0.015 2.488-0.135 0.854 0.009 1.665 0.254 2.453 0.449 1.447 0.96 2.875 1.461 4.307 0.567 1.62 1.179 3.238 2.154 4.649 2.021 2.925 4.33 5.624 7.04 7.932 3.181 2.712 6.453 5.316 9.66 7.999 1.868 1.564 3.724 3.151 5.282 5.041 0.695 0.841 1.312 1.719 1.176 2.914 0.264 0.02 0.482 0.049 0.701 0.051 1.773 0.026 3.547 0.05 5.32 0.069 0.797 0.009 0.841-0.057 0.737-0.854-0.044-0.335-0.169-0.638-0.313-0.938-0.276-0.578-0.651-1.089-1.051-1.588-1.42-1.766-3.211-3.131-4.963-4.527-3.829-3.054-7.713-6.038-11.554-9.077-1.454-1.148-2.969-2.231-4.256-3.577-1.34-1.402-2.589-2.883-3.822-4.382-0.966-1.173-1.628-2.455-2.069-3.916-0.446-1.478-0.25-2.844 0.287-4.205 0.361-0.912 1.044-1.201 1.994-0.916 0.792 0.24 1.582 0.491 2.363 0.762 0.798 0.277 1.584 0.589 2.376 0.885-0.238 0.11-0.452 0.109-0.667 0.11-1.404 0.009-1.683 0.248-2.115 1.583-0.216 0.667-0.066 1.253 0.205 1.836 0.222 0.478 0.473 0.94 0.736 1.393 1.135 1.954 2.487 3.759 4.263 5.153 5.768 4.527 11.819 8.676 17.646 13.125 1.673 1.278 3.352 2.546 4.804 4.082 1.371 1.45 2.688 2.941 2.78 5.204 2.048 0 4.042 0 6.034 0.001 0.771 0 0.81-0.046 0.684-0.8C81.346 70.542 80.65 69.349 79.831 68.229z" data-fill-palette-color="accent"></path><path fill="#5ebc67" d="M27.882 67.337c-0.868-1.695-1.802-3.356-2.637-5.066-1.553-3.185-2.857-6.423-3.188-10.032-0.317-3.458 0.062-6.784 1.013-10.085 0.265-0.919 0.608-1.811 0.965-2.693-0.429-0.228-0.681 0.027-0.957 0.199-1.291 0.807-2.471 1.781-3.762 2.578-1.325 0.819-2.383 1.859-3.213 3.156-0.5 0.779-1.196 1.421-1.587 2.276 0.328 0.019 0.531-0.187 0.731-0.382 0.026-0.025 0.052-0.049 0.079-0.075 0.002-0.002 0.005-0.003 0.007-0.006 0.032-0.029 0.065-0.056 0.097-0.084 1.523-1.199 2.894-2.573 4.359-3.837 0.212-0.183 0.391-0.445 0.702-0.469 0.167 0.312-0.071 0.403-0.195 0.516-1.853 1.672-3.472 3.564-5.132 5.42-1.143 1.279-2.292 2.567-3.66 3.609-1.002 0.764-1.843 1.638-2.572 2.66-1.256 1.759-2.572 3.477-3.879 5.234 0.116 0.021 0.185 0.057 0.217 0.035 0.186-0.119 0.364-0.25 0.541-0.382 2.885-2.15 5.309-4.757 7.506-7.586 1.034-1.33 2.057-2.668 3.085-4.002 0.05 0.08 0.1 0.16 0.15 0.24-0.786 1.263-1.571 2.529-2.358 3.791-2.244 3.599-4.719 7.019-7.659 10.093C6.036 62.964 5.52 63.464 5 63.96v4.642c0.294-0.461 0.581-0.926 0.939-1.339 1.563-1.798 3.013-3.681 4.261-5.712 2.3-3.738 4.321-7.63 6.284-11.551 0.727-1.454 1.519-2.869 2.468-4.192 0.056 0.04 0.112 0.079 0.168 0.119-0.278 0.572-0.585 1.132-0.827 1.717-1.367 3.314-2.791 6.604-3.949 10.002-0.633 1.855-1.348 3.68-2.182 5.453-0.227 0.485-0.367 0.979-0.442 1.5-0.064 0.438-0.121 0.876-0.191 1.313-0.36 2.238-1.165 4.258-2.872 5.833-0.028 0.025-0.009 0.103-0.016 0.232 2.052 0 4.098-0.01 6.145 0.01 0.356 0.002 0.558-0.168 0.76-0.409 0.832-0.998 1.198-2.165 1.267-3.441 0.078-1.416-0.065-2.823-0.238-4.225-0.223-1.812-0.434-3.588 0.042-5.423 0.566-2.189 0.693-4.478 1.371-6.65 0.729-2.342 1.339-4.728 2.342-6.978 0.444-0.995 0.936-1.968 1.597-2.872 0.226 0.371-0.021 0.637-0.126 0.898-0.944 2.313-1.51 4.731-1.947 7.179-0.44 2.467-0.319 4.971-0.379 7.461-0.005 0.164 0.025 0.333 0.065 0.492 0.294 1.18 0.582 2.36 0.897 3.534 0.538 1.998 1.313 3.925 1.798 5.938 0.369 1.529 0.609 3.061-0.488 4.437-0.016 0.021 0.029 0.089 0.064 0.188 1.921 0 3.86-0.002 5.798 0 0.842 0 0.985-0.112 1.191-0.912 0.091-0.354 0.11-0.703 0.061-1.068C28.726 69.135 28.336 68.221 27.882 67.337z" data-fill-palette-color="accent"></path><path fill="#5ebc67" d="M14.505 47.684c0.001 0 0.002 0 0.004-0.002 0.002-0.004 0.005-0.008 0.006-0.013-0.008-0.001-0.016-0.001-0.024-0.001C14.497 47.674 14.5 47.68 14.505 47.684z" data-fill-palette-color="accent"></path><path fill="#5ebc67" d="M14.489 47.78c0.012-0.003 0.021-0.008 0.027-0.015 0.004-0.005 0.005-0.011 0.006-0.016 0.001-0.002 0.003-0.004 0.004-0.008 0-0.008 0-0.015-0.004-0.024 0-0.001 0-0.001 0-0.002-0.003-0.01-0.009-0.02-0.017-0.031-0.037 0.019-0.074 0.039-0.111 0.059C14.426 47.757 14.463 47.789 14.489 47.78z" data-fill-palette-color="accent"></path><path fill="#5ebc67" d="M94.996 72.358c-0.134-0.822-0.309-1.646-0.669-2.385-0.715-1.457-0.714-2.984-0.605-4.536 0.098-1.437 0.137-2.876 0.106-4.316-0.011-0.475-0.161-0.83-0.455-1.193-1.201-1.482-2.36-2.999-3.562-4.482-0.549-0.676-1.029-1.415-1.674-2.03-0.17 0.218-0.098 0.416-0.115 0.597-0.113 1.188-0.621 1.615-1.799 1.517-0.701-0.059-1.341-0.321-1.963-0.614-1.42-0.674-2.814-1.403-4.243-2.053-2.938-1.337-5.987-2.395-9.04-3.432-1.293-0.439-2.254-1.133-2.639-2.489-0.081-0.28-0.242-0.483-0.496-0.633-0.201-0.118-0.448-0.202-0.509-0.342 1.134-2.403 2.229-4.722 3.376-7.15-1.094 0-2.034 0.027-2.971-0.011-0.449-0.02-0.688 0.126-0.904 0.52-0.892 1.617-1.821 3.212-2.735 4.815-0.429 0.754-0.427 0.756-1.248 0.6-0.733-0.14-1.468-0.263-2.195-0.432-0.467-0.11-0.931-0.108-1.401-0.118-0.447-0.011-0.789 0.171-1.095 0.546 0.602 0.529 1.265 0.921 1.912 1.32 1.688 1.037 3.335 2.132 5.195 2.886 1.421 0.575 2.883 1.149 3.908 2.407 1.493 1.832 3.358 3.294 4.998 4.98 0.623 0.639 1.344 1.131 2.112 1.586 3.688 2.178 6.92 4.863 9.288 8.484 1.23 1.878 2.371 3.801 2.609 6.104 0.037 0.342 0.277 0.286 0.488 0.289 1.965 0.034 3.931 0.049 5.897 0.104C95.032 72.908 95.058 72.736 94.996 72.358z" data-fill-palette-color="accent"></path><path fill="#5ebc67" d="M54.489 70.436c-0.393-0.672-0.874-1.279-1.397-1.853-1.945-2.135-4.142-4.001-6.318-5.89-2.931-2.541-5.87-5.068-8.34-8.087-1.545-1.89-3-3.821-3.961-6.093-1.001-2.362-1.873-4.776-2.836-7.153-0.156-0.385-0.215-0.795-0.241-1.214-0.062-0.994-0.153-1.985-0.246-2.977-0.134-1.453 0.144-2.857 0.993-4.1 0.071-0.104 0.208-0.199 0.026-0.416-0.574 0.348-1.144 0.726-1.743 1.05-1.08 0.583-1.652 1.503-1.872 2.677-0.03 0.165-0.051 0.329-0.066 0.493-0.128 1.469 0.049 2.929 0.097 4.393 0.043 1.358 0.395 2.611 0.89 3.852 0.685 1.716 1.314 3.455 2.026 5.161 0.66 1.579 1.407 3.119 2.393 4.533 1.893 2.716 4.119 5.139 6.471 7.454 1.936 1.902 3.942 3.736 5.754 5.764 0.666 0.743 1.309 1.509 1.763 2.401 0.289 0.562 0.55 1.152 0.174 2.003 2.081 0 4.018 0 5.953 0.001 0.95 0 1.15-0.259 0.866-1.177C54.785 70.973 54.643 70.695 54.489 70.436z" data-fill-palette-color="accent"></path><path fill="#5ebc67" d="M40.693 68.826c-1.387-1.98-3.098-3.687-4.675-5.506-1.994-2.303-3.959-4.629-5.462-7.297-1.274-2.268-2.245-4.674-3.066-7.134-0.411-1.227-0.876-2.445-1.053-3.739-0.343-2.495-0.056-4.972 0.176-7.454 0.037-0.406 0.385-0.716 0.32-1.14-0.166-0.012-0.247 0.06-0.334 0.128-1.083 0.876-1.681 2.035-1.933 3.377-0.179 0.951-0.301 1.913-0.464 2.867-0.289 1.676-0.39 3.368-0.132 5.045 0.503 3.297 1.506 6.44 2.979 9.44 1.459 2.971 3.378 5.637 5.292 8.312 0.851 1.191 1.749 2.353 2.385 3.682 0.416 0.866 0.657 1.756 0.115 2.868 2.151 0 4.144 0.002 6.136-0.001 0.671-0.001 0.8-0.138 0.822-0.815 0.013-0.397-0.084-0.771-0.237-1.13C41.331 69.796 41.027 69.302 40.693 68.826z" data-fill-palette-color="accent"></path><path fill="#5ebc67" d="M71.833 47.306c0.773 0.395 1.508 0.218 2.203-0.185 0.762-0.442 1.548-0.875 1.81-1.83 0.466-1.7 0.935-3.4 1.426-5.094 0.089-0.305 0.037-0.512-0.14-0.758-0.295-0.412-0.622-0.656-1.172-0.582-0.407 0.056-0.831 0.044-1.242-0.001-0.492-0.055-0.721 0.117-0.894 0.597-0.66 1.84-1.381 3.659-2.062 5.49-0.255 0.684-0.573 1.315-1.215 1.831C70.98 47.077 71.441 47.107 71.833 47.306z" data-fill-palette-color="accent"></path><path fill="#5ebc67" d="M75.627 48.175c-0.339-0.013-0.673-0.048-1.143 0.084 1.777 0.556 3.368 1.229 4.993 1.81 0.727 0.26 1.475 0.461 2.268 0.428 1.087-0.045 1.682-0.532 1.908-1.598 0.04-0.19 0.04-0.388 0.092-0.574 0.079-0.294 0.012-0.53-0.178-0.767-1.093-1.355-2.172-2.72-3.32-4.162-0.167 0.28-0.178 0.5-0.217 0.715-0.146 0.816-0.274 1.636-0.566 2.416-0.392 1.042-1.163 1.586-2.26 1.651C76.681 48.211 76.152 48.198 75.627 48.175z" data-fill-palette-color="accent"></path><path fill="#5ebc67" d="M20.285 39.799c0.846-0.351 1.47-0.783 2.139-1.166C21.312 38.195 20.846 38.919 20.285 39.799z" data-fill-palette-color="accent"></path></g></svg></g></svg></g></svg></g><defs></defs></svg><rect width="395.5199999999999" height="121.16739539253345" fill="none" stroke="none" visibility="hidden"></rect></g></svg></g></svg>