<svg xmlns="http://www.w3.org/2000/svg" viewBox="0 0 4506.92017 1060.45996"><g id="Layer_2" data-name="Layer 2"><g id="Layer_1-2" data-name="Layer 1"><path d="M841.11011,122.09961q-13.53-14.83448-33.57007-35.31982-20.0702-20.49024-40.98-40.56006-20.955-20.03981-35.77-33.12989Q715.95483.00952,713.34985,0H0V882.5498H392.42993V706.3999H713.34985c2.32007,0,8.59009-4.37011,18.75-13.08008q15.25526-13.095,35.76026-33.1499,20.48987-20.04053,40.55981-40.55029,20.04016-20.47485,33.14014-35.31983,13.06494-14.80516,13.07007-17.43994V139.52979Q854.63013,136.92017,841.11011,122.09961ZM458.7,453.48975c0,3.49023-.29,5.52978-.86987,6.10009-.58008.58008-2.6001.87989-6.1001.87989H395.91992c-3.49,0-5.53979-.29981-6.10986-.87989-.59009-.57031-.87012-2.60986-.87012-6.10009V237.21c0-3.49023.28-5.51025.87012-6.11035.57007-.55957,2.61987-.85986,6.10986-.85986H451.73c3.5,0,5.52.30029,6.1001.85986.57983.6001.86987,2.62012.86987,6.11035ZM924.38989,0V106.3999h402.91016V0ZM0,952.31982V1060.46H2251.71V952.31982ZM3162.59985,300q-13.53-14.80518-33.56982-35.31006-20.05518-20.49022-40.99024-40.56006-20.92455-20.05517-35.75976-33.14013c-9.8999-8.73-15.68994-13.08008-17.4502-13.08008H2321.48V1060.46h402.88989V882.5498h310.46c2.32032,0,8.59034-4.35009,18.75-13.08007q15.27027-13.0796,35.78028-33.14014,20.45948-20.03979,40.54-40.5498,20.03979-20.47487,33.13964-35.31006,13.0957-14.83521,13.08008-17.4502V317.43994Q3176.11987,314.845,3162.59985,300ZM2783.67993,638.36963q0,5.23534-.87012,6.11035-.86939.86939-6.10009.86963h-55.81983c-3.48974,0-5.54-.29-6.1001-.86963-.5996-.58008-.87988-2.62012-.87988-6.11035v-216.27c0-3.5.28028-5.52.87988-6.10986.56006-.56983,2.61036-.87012,6.1001-.87012h55.81983c3.49023,0,5.5205.30029,6.10009.87012.58008.58984.87012,2.60986.87012,6.10986ZM4104.02026,0V743.01953q0,2.61036,13.51953,17.4502,13.48536,14.81982,33.57032,35.31006,20.06982,20.50488,40.98,40.5498,20.95458,20.08521,35.77,33.14014c9.87011,8.73,15.6997,13.08007,17.41992,13.08007h261.64014V0ZM1397.07007,108.13965H4034.26V0H1397.07007ZM2794.13989,952.31982V1060.46H4506.92017V952.31982ZM4020.74,300q-13.53-14.80518-33.56982-35.31006-20.08521-20.49022-41.01026-40.56006-20.90991-20.05517-35.73974-33.14013-14.84987-13.095-17.4502-13.08008H3245.88989V429.06982q70.63549-10.45531,122.52-17.87988,51.88478-7.39525,103.78028-14.83008,51.8701-7.37988,122.54-17.87011c.55957,4.66015,1.29981,9.46,2.16993,14.39013.87988,4.94971,1.87988,11.19971,3.05957,18.75q1.74023,11.35474,3.05029,19.18994c.87988,5.23,1.58008,10.46,2.18018,15.69971q-72.42042,10.45533-126.02,18.31006-53.61036,7.845-107.26026,15.68994-53.625,7.84571-126.02,18.31006V743.01953q0,2.61036,13.52,17.4502,13.5,14.81982,33.57031,35.31006,20.05445,20.50488,40.98975,40.5498,20.9253,20.08521,35.76025,33.14014,14.80445,13.095,17.42969,13.08007H4034.26V317.43994Q4034.26,314.845,4020.74,300ZM3756.92993,671.50977c0,3.5-.2998,5.53027-.87012,6.10986-.58984.58008-2.62988.86035-6.10009.86035H3533.67017c-3.48,0-5.52-.28027-6.1001-.86035-.58008-.57959-.87012-2.60986-.87012-6.10986V615.69971q0-5.23462.87012-6.10987c.58008-.58007,2.62012-.87011,6.1001-.87011h216.28955c3.47021,0,5.51025.29,6.10009.87011.57032.58008.87012,2.62012.87012,6.10987Zm-1570.61987-88.9502q-27.93018-13.93506-55.82007-27.91992-27.91479-13.93506-65.40991-33.12988,37.5-20.05518,65.40991-34.44,27.91479-14.40013,55.82007-28.79,27.25488-14.05518,63.65991-33.52V177.90967H1852.30005V406.3999a17.05692,17.05692,0,0,1-.43994,4.79,2.57509,2.57509,0,0,1-1.74024,1.73975,16.92272,16.92272,0,0,1-4.80981.43994H1789.51a16.70443,16.70443,0,0,1-4.80005-.43994,2.53756,2.53756,0,0,1-1.74-1.73975,17.04723,17.04723,0,0,1-.43994-4.79V177.90967h-385.46V424.76953q36.405,19.5,63.65991,33.51026,27.91516,14.40014,55.82007,28.79,27.89977,14.38478,65.3999,34.44-37.515,19.1997-65.3999,33.12988-27.93018,13.98047-55.82007,27.91992-27.25488,13.62012-63.65991,32.24023v267.75h385.73a2.91239,2.91239,0,0,1-.27-1.2998V643.59961a17.09642,17.09642,0,0,1,.43994-4.79,2.55669,2.55669,0,0,1,1.74-1.73975,17.07443,17.07443,0,0,1,4.80005-.43994h55.80005a17.30028,17.30028,0,0,1,4.80981.43994,2.595,2.595,0,0,1,1.74024,1.73975,17.10616,17.10616,0,0,1,.43994,4.79V881.25a3.05522,3.05522,0,0,1-.27,1.2998H2251.71V615.69971Q2214.19495,596.53,2186.31006,582.55957ZM924.38989,172.67969V882.5498h402.91016V172.67969Z"/></g></g></svg>